<?xml version="1.0" encoding="UTF-8" standalone="no"?>
<!DOCTYPE svg PUBLIC "-//W3C//DTD SVG 1.1//EN" "http://www.w3.org/Graphics/SVG/1.1/DTD/svg11.dtd">
<svg width="100%" height="100%" viewBox="0 0 460 880" version="1.1" xmlns="http://www.w3.org/2000/svg" xmlns:xlink="http://www.w3.org/1999/xlink" xml:space="preserve" xmlns:serif="http://www.serif.com/" style="fill-rule:evenodd;clip-rule:evenodd;stroke-linecap:square;stroke-miterlimit:2;">
    <g transform="matrix(10,0,0,10,0,0)">
        <rect x="0" y="0" width="46" height="88" style="fill:white;"/>
        <path d="M46,0L0,0L0,88L46,88L46,0ZM4,4L4,84L42,84L42,4L4,4Z" style="fill:rgb(35,31,32);"/>
    </g>
    <g transform="matrix(10.8014,0,0,10,-33.6577,0)">
        <path d="M42,16L18,16" style="fill:none;stroke:rgb(35,31,32);stroke-width:3.84px;"/>
    </g>
    <g transform="matrix(10,0,2.16824e-17,9.99939,0.767004,0.026966)">
        <path d="M16,32L16,44" style="fill:none;stroke:rgb(35,31,32);stroke-width:4px;"/>
    </g>
    <g transform="matrix(10,0,0,15,0,-420)">
        <path d="M16.077,84L16.077,76" style="fill:none;stroke:rgb(35,31,32);stroke-width:3.14px;"/>
    </g>
    <g transform="matrix(10,0,0,10,0,0)">
        <path d="M30,84L30,72" style="fill:none;stroke:rgb(35,31,32);stroke-width:4px;"/>
    </g>
    <g transform="matrix(10,0,0,10,8.88178e-15,0)">
        <path d="M4,30L30,30" style="fill:none;stroke:rgb(35,31,32);stroke-width:4px;"/>
    </g>
    <g transform="matrix(10,0,0,11.6667,0,-96.6667)">
        <path d="M4,58L30,58L30,46" style="fill:none;stroke:rgb(35,31,32);stroke-width:3.68px;"/>
    </g>
    <g transform="matrix(10,0,0,10,-25,-25)">
        <circle cx="25.5" cy="81.5" r="2.5" style="fill:rgb(255,0,0);"/>
    </g>
</svg>
